<svg xmlns="http://www.w3.org/2000/svg" viewBox="0 0 100 100" width="100" height="100"><rect x="0" y="0" width="100" height="100" rx="0" fill="none"/><circle cx="10" cy="8" r="5.880" fill="#000000"/><circle cx="30" cy="8" r="5.321" fill="#000000"/><circle cx="50" cy="8" r="4.763" fill="#000000"/><circle cx="70" cy="8" r="4.204" fill="#000000"/><circle cx="10" cy="22" r="5.880" fill="#000000"/><circle cx="30" cy="22" r="5.321" fill="#000000"/><circle cx="90" cy="22" r="3.646" fill="#000000"/><circle cx="10" cy="36" r="5.880" fill="#000000"/><circle cx="30" cy="36" r="5.321" fill="#000000"/><circle cx="90" cy="36" r="3.646" fill="#000000"/><circle cx="10" cy="50" r="5.880" fill="#000000"/><circle cx="30" cy="50" r="5.321" fill="#000000"/><circle cx="50" cy="50" r="4.763" fill="#000000"/><circle cx="70" cy="50" r="4.204" fill="#000000"/><circle cx="10" cy="64" r="5.880" fill="#000000"/><circle cx="30" cy="64" r="5.321" fill="#000000"/><circle cx="10" cy="78" r="5.880" fill="#000000"/><circle cx="30" cy="78" r="5.321" fill="#000000"/><circle cx="10" cy="92" r="5.880" fill="#000000"/><circle cx="30" cy="92" r="5.321" fill="#000000"/></svg>